<?xml version="1.0" encoding="utf-8"?>
<!-- Generator: Adobe Illustrator 25.4.1, SVG Export Plug-In . SVG Version: 6.00 Build 0)  -->
<svg version="1.1" id="Ebene_1" xmlns="http://www.w3.org/2000/svg" xmlns:xlink="http://www.w3.org/1999/xlink" x="0px" y="0px"
	 viewBox="0 0 77.7 124.9" style="enable-background:new 0 0 77.7 124.9;" xml:space="preserve">
<style type="text/css">
	.st0{fill:#A72727;}
</style>
<g id="Ebene_2_00000007413914835610974640000002004880079411699886_">
	<g id="Ńëîé_1">
		<path class="st0" d="M67.6,124.9H10.1c-5.6,0-10.1-4.5-10.1-10.1V10.1C0,4.5,4.5,0,10.1,0h57.5c5.6,0,10.1,4.5,10.1,10.1v104.8
			C77.7,120.4,73.2,124.9,67.6,124.9z M10.1,3.8c-3.5,0-6.3,2.8-6.3,6.3v104.8c0,3.5,2.8,6.3,6.3,6.3h57.5c3.5,0,6.3-2.8,6.3-6.3
			V10.1c0-3.5-2.8-6.3-6.3-6.3H10.1z"/>
		<path class="st0" d="M75.8,105.1H1.9c-1,0-1.9-0.8-1.9-1.9v-84c0-1,0.8-1.9,1.9-1.9h73.9c1,0,1.9,0.8,1.9,1.9v84
			C77.7,104.2,76.8,105.1,75.8,105.1z M3.8,101.3h70.1V21.1H3.8L3.8,101.3z"/>
		<path class="st0" d="M45.6,12.5H32c-1,0.1-1.9-0.7-2-1.7c-0.1-1,0.7-1.9,1.7-2c0.1,0,0.2,0,0.3,0h13.6c1,0.1,1.8,1,1.7,2
			C47.3,11.7,46.6,12.4,45.6,12.5z"/>
		<path class="st0" d="M40,115.3h-2.3c-1,0.1-1.9-0.7-2-1.7c-0.1-1,0.7-1.9,1.7-2c0.1,0,0.2,0,0.3,0H40c1,0.1,1.8,1,1.7,2
			C41.7,114.5,40.9,115.2,40,115.3z"/>
		<path class="st0" d="M38.8,88c-14.1,0-25.6-11.5-25.6-25.6s11.5-25.6,25.6-25.6s25.6,11.5,25.6,25.6c0,0,0,0,0,0
			C64.4,76.6,52.9,88,38.8,88z M38.8,40.6C26.8,40.6,17,50.4,17,62.4s9.8,21.8,21.8,21.8c12.1,0,21.8-9.8,21.8-21.8
			C60.6,50.4,50.9,40.6,38.8,40.6L38.8,40.6z"/>
		<path class="st0" d="M37.3,72.7c-0.5,0-1-0.2-1.3-0.6l-8.9-8.9c-0.7-0.7-0.7-1.9,0-2.7s1.9-0.7,2.6,0l7.6,7.6l13.6-13.6
			c0.7-0.8,1.9-0.8,2.7-0.1c0.8,0.7,0.8,1.9,0.1,2.7c0,0-0.1,0.1-0.1,0.1L38.7,72.1C38.3,72.5,37.8,72.7,37.3,72.7z"/>
	</g>
</g>
</svg>
