<svg xmlns="http://www.w3.org/2000/svg" viewBox="0 0 283.44 237.12"><defs><style>.cls-1{fill:#474747;}</style></defs><g id="Ebene_2" data-name="Ebene 2"><g id="Layer_1" data-name="Layer 1"><path class="cls-1" d="M280,22.37H160L138.62,1a3.49,3.49,0,0,0-2.46-1H3.48A3.48,3.48,0,0,0,0,3.48V230.4a6.73,6.73,0,0,0,6.72,6.72h270a6.73,6.73,0,0,0,6.72-6.72V25.85A3.48,3.48,0,0,0,280,22.37Zm-3.48,207.79H7V52.89H276.48ZM7,45.92V7H134.72l21.35,21.35a3.43,3.43,0,0,0,2.46,1h118V45.92Z"/><path class="cls-1" d="M23.67,14.67a6.82,6.82,0,1,0,6.82,6.82A6.82,6.82,0,0,0,23.67,14.67Z"/><circle class="cls-1" cx="43.61" cy="21.49" r="6.82"/><path class="cls-1" d="M63.55,14.67a6.82,6.82,0,1,0,6.82,6.82A6.82,6.82,0,0,0,63.55,14.67Z"/><path class="cls-1" d="M95.25,174.69a3.51,3.51,0,0,0,2.47,1,3.48,3.48,0,0,0,2.46-5.94L71.94,141.53l29.12-29.12a3.48,3.48,0,0,0-4.92-4.93L64.55,139.06a3.49,3.49,0,0,0,0,4.93Z"/><path class="cls-1" d="M211.5,143.26,183.26,171.5a3.48,3.48,0,0,0,4.93,4.92l30.7-30.7a3.48,3.48,0,0,0,0-4.92L187.3,109.21a3.48,3.48,0,0,0-4.92,4.93Z"/><path class="cls-1" d="M129.24,181.62a3.26,3.26,0,0,0,1,.15,3.46,3.46,0,0,0,3.33-2.47L156,105.76a3.48,3.48,0,0,0-6.67-2l-22.36,73.54A3.48,3.48,0,0,0,129.24,181.62Z"/></g></g></svg>