<?xml version="1.0" encoding="utf-8"?>
<!-- Generator: Adobe Illustrator 25.4.1, SVG Export Plug-In . SVG Version: 6.00 Build 0)  -->
<svg version="1.1" id="Ebene_1" xmlns="http://www.w3.org/2000/svg" xmlns:xlink="http://www.w3.org/1999/xlink" x="0px" y="0px"
	 viewBox="0 0 222.8 280.5" style="enable-background:new 0 0 222.8 280.5;" xml:space="preserve">
<style type="text/css">
	.st0{fill:#A72727;}
</style>
<g id="Ebene_2_00000110446493612017454220000011409529853502032781_">
	<g id="Layer_1">
		<path class="st0" d="M83.1,40.2C37.2,40.2,0,77.4,0,123.2c0,21.6,8.4,42.4,23.5,57.9l2.8,3.8c6.6,8.9,11,14.8,14,20.8
			s5.1,12.6,7.3,24c0,0.1,0,0.1,0,0.1l0,0c0,0.2,4.5,18.9,4.5,30l0,0c0,0.4,0,0.7,0.2,1.1c3.3,10.4,11.1,17.3,21.9,19.2
			c0.2,0,0.4,0.1,0.6,0.1c1.8,0,3.2-1.3,3.5-3.1c0.1-0.4,0.4-0.7,0.8-0.7H86c0.4,0,0.8,0.3,0.8,0.8c0.2,1.8,1.7,3.2,3.5,3.2
			c0.2,0,0.3,0,0.5,0c11.4-1.7,19.5-8.6,23-19.4c0.1-0.3,0.1-0.7,0.1-1.1l0,0c0-11.1,4.5-29.9,4.5-30l0,0c0,0,0-0.1,0-0.1
			c2.2-11.4,4.2-17.9,7.3-24s7.4-11.9,14-20.8l2.8-3.8c32-32.9,31.2-85.5-1.7-117.5C125.4,48.7,104.6,40.3,83,40.3L83.1,40.2z
			 M59,131.8l1.1,11.4H47.4c-6.3,0-11.4-5.1-11.4-11.4c0-6.3,5.1-11.4,11.4-11.4s11.4,5.1,11.4,11.4c0,0,0,0,0,0H59z M107.4,131.8
			c0-6.3,5.1-11.4,11.4-11.4s11.4,5.1,11.4,11.4c0,6.3-5.1,11.4-11.4,11.4h-12.7l1.1-11.4H107.4z M91,225.7H75.3l-7.5-75.5h30.6
			L91,225.7z M110.9,232.7c-0.5,2.2-1.1,5.2-1.7,8.5H57.1c-0.6-3.3-1.2-6.2-1.7-8.5H110.9z M92.6,273.1c-1.4-2.1-3.9-3.4-6.4-3.5
			h-6.9c-2.5,0-4.8,1.2-6.3,3.2c-5.1-1.4-9.4-4.7-12-9.4h44.4C102.5,268.3,97.9,271.8,92.6,273.1z M59,256.5
			c-0.2-2.7-0.5-5.6-0.9-8.5h50c-0.4,2.9-0.7,5.8-0.9,8.5H59z M137.6,176.5c-0.1,0.1-0.2,0.2-0.3,0.4l-2.9,4
			c-6.8,9.2-11.3,15.3-14.6,21.8c-3.2,6.2-5.2,12.6-7.4,23H98l7.5-75.5h13.4c10.2,0,18.4-8.2,18.4-18.3c0-10.2-8.2-18.4-18.3-18.4
			c-8.9,0-16.5,6.3-18.1,15c-0.2,0.3-0.3,0.7-0.3,1.1l-1.3,13.7h-32l-1.4-13.7c0-0.4-0.1-0.8-0.3-1.1c-1.9-10-11.5-16.5-21.5-14.6
			s-16.5,11.5-14.6,21.5c1.7,8.7,9.3,15,18.1,14.9h13.4l7.5,75.5H53.9c-2.2-10.4-4.2-16.9-7.4-23c-3.3-6.5-7.8-12.6-14.6-21.8
			l-2.9-4c-0.1-0.1-0.2-0.2-0.3-0.4C-0.7,146.4-0.1,98.2,29.9,68.8s78.3-28.8,107.7,1.3c13.9,14.2,21.7,33.3,21.7,53.2
			C159.3,143.2,151.5,162.3,137.6,176.5L137.6,176.5z"/>
		<path class="st0" d="M134.1,33c0.5,0.3,1.1,0.5,1.7,0.5c1.2,0,2.4-0.7,3-1.7l15.3-26.5c0.8-1.7,0.1-3.8-1.7-4.6
			c-1.5-0.7-3.4-0.2-4.3,1.2l-15.3,26.5C131.9,29.9,132.4,32,134.1,33C134.1,33,134.1,33,134.1,33z"/>
		<path class="st0" d="M174.5,72c0.6,0,1.2-0.2,1.7-0.5l26.5-15.3c1.6-1.1,2-3.3,0.9-4.8c-1-1.4-2.8-1.9-4.4-1.2l-26.5,15.3
			c-1.7,1-2.2,3.1-1.3,4.7C172.1,71.4,173.3,72,174.5,72L174.5,72z"/>
		<path class="st0" d="M219.3,117.8h-30.6c-1.9,0-3.5,1.6-3.5,3.5s1.6,3.5,3.5,3.5h30.6c1.9,0,3.5-1.6,3.5-3.5
			S221.2,117.8,219.3,117.8z"/>
		<path class="st0" d="M202.8,186.3L176.3,171c-1.6-1.1-3.8-0.7-4.8,0.9c-1.1,1.6-0.7,3.8,0.9,4.8c0.1,0.1,0.3,0.2,0.4,0.3
			l26.5,15.3c0.5,0.3,1.1,0.5,1.7,0.5c1.9,0,3.5-1.5,3.5-3.5C204.6,188,203.9,186.9,202.8,186.3L202.8,186.3z"/>
		<path class="st0" d="M143.4,217.9c-1.1-1.6-3.3-2-4.8-0.9c-1.4,1-1.9,2.8-1.2,4.3l15.3,26.5c0.6,1.1,1.8,1.7,3,1.7
			c0.6,0,1.2-0.2,1.7-0.5c1.7-1,2.2-3.1,1.3-4.8L143.4,217.9z"/>
	</g>
</g>
</svg>
