<?xml version="1.0" encoding="utf-8"?>
<!-- Generator: Adobe Illustrator 25.4.1, SVG Export Plug-In . SVG Version: 6.00 Build 0)  -->
<svg version="1.1" id="Ebene_1" xmlns="http://www.w3.org/2000/svg" xmlns:xlink="http://www.w3.org/1999/xlink" x="0px" y="0px"
	 viewBox="0 0 250.7 255" style="enable-background:new 0 0 250.7 255;" xml:space="preserve">
<style type="text/css">
	.st0{fill:#F2F2F2;}
	.st1{fill:#A72727;}
	.st2{fill:none;stroke:#A72727;stroke-width:10.71;stroke-miterlimit:10;}
</style>
<path class="st0" d="M130.2,198.5c-2.7,1.5-6,1.5-8.7,0L40,148.1l-16.7,9.1l98.2,60.7c2.7,1.5,6,1.5,8.7,0l97.3-60.6l-16.7-9
	L130.2,198.5z"/>
<path class="st1" d="M125.8,255L125.8,255c-2.5,0-4.9-0.6-7-1.9L8.5,184.9c-5.4-3.3-8.4-8.1-8.3-13.2s3.4-9.7,9-12.7l30.9-16.8
	l84.1,52c0.5,0.2,1.1,0.4,1.6,0.3c0.6,0,1.1-0.1,1.7-0.4l83.2-51.8l30.8,16.7c5.6,3,8.9,7.6,9,12.7s-2.9,9.9-8.2,13.2l-109.4,68.1
	C130.8,254.4,128.3,255,125.8,255z M39.8,154l-25.7,14c-2.3,1.2-3.6,2.7-3.7,4s1.2,2.9,3.4,4.2l110.3,68.2c0.5,0.2,1.1,0.4,1.6,0.3
	l0,0c0.6,0,1.1-0.1,1.7-0.4l109.4-68.1c2.2-1.4,3.5-2.9,3.4-4.2s-1.4-2.8-3.7-4L211,154.1l-78.1,48.7c-4.3,2.5-9.7,2.5-14,0
	L39.8,154z"/>
<path class="st0" d="M130.2,151.9c-2.7,1.5-6,1.5-8.7,0l-80.1-49.5L26,110.8l95.5,59c2.7,1.5,6,1.5,8.7,0l94.6-58.9l-15.4-8.3
	L130.2,151.9z"/>
<path class="st2" d="M121.5,150.9c2.7,1.5,6,1.5,8.7,0l109.4-68.2c8-5,7.7-12.6-0.5-17.1L129.5,6.4c-2.8-1.4-6.2-1.4-9,0L11.7,65.6
	c-8.2,4.5-8.5,12.1-0.5,17.1L121.5,150.9z"/>
<path class="st1" d="M241.5,108.8l-23.4-12.7l-10,6.2l28.5,15.4c2.3,1.2,3.6,2.7,3.7,4s-1.2,2.9-3.4,4.2l-109.3,68.2
	c-0.5,0.3-1.1,0.4-1.7,0.4l0,0c-0.6,0-1.1-0.1-1.6-0.3L13.9,126c-2.2-1.3-3.5-2.9-3.4-4.2s1.4-2.8,3.7-4l28.6-15.6l-10-6.2
	L9.2,108.8c-5.6,3-8.8,7.7-9,12.7s2.9,9.8,8.3,13.2l110.3,68.2c2.1,1.3,4.5,1.9,7,1.9l0,0c2.5,0,4.9-0.6,7-1.9l109.4-68.1
	c5.4-3.4,8.4-8.2,8.2-13.2S247,111.8,241.5,108.8z"/>
</svg>
