<svg xmlns="http://www.w3.org/2000/svg" viewBox="0 0 422.74 227.38"><defs><style>.cls-1{fill:#474747;}</style></defs><g id="Ebene_2" data-name="Ebene 2"><g id="Layer_1" data-name="Layer 1"><path class="cls-1" d="M404.56,57.27H372.85V7.19A7.2,7.2,0,0,0,365.66,0H7.19A7.2,7.2,0,0,0,0,7.19V200.85H0V215a12.39,12.39,0,0,0,12.37,12.37H404.56a18.2,18.2,0,0,0,18.18-18.18V75.45A18.21,18.21,0,0,0,404.56,57.27ZM7.19,7H365.66a.24.24,0,0,1,.23.23V57.27H335.63a18.2,18.2,0,0,0-18.18,18.18V193.88h-97.8a3.48,3.48,0,0,0-3.48,3.48,2.49,2.49,0,0,1-2.45,2.46H159.15a2.5,2.5,0,0,1-2.46-2.46,3.48,3.48,0,0,0-3.48-3.48H7V7.19A.24.24,0,0,1,7.19,7Zm5.18,213.46A5.41,5.41,0,0,1,7,215V200.85H150.39a9.44,9.44,0,0,0,8.76,5.93h54.57a9.44,9.44,0,0,0,8.75-5.93h95v8.35c0,.59,0,1.16.08,1.73,0,.19.05.37.07.55q.07.57.18,1.14c0,.21.09.41.13.62s.17.69.27,1,.12.41.19.61.23.67.37,1l.21.54c.17.39.36.77.55,1.14.06.11.11.23.17.34.26.47.54.93.85,1.38.08.13.18.25.26.38l.55.75Zm403.4-11.22a11.23,11.23,0,0,1-11.21,11.22H335.63a11.23,11.23,0,0,1-11.22-11.22V75.45a11.24,11.24,0,0,1,11.22-11.22h68.93a11.23,11.23,0,0,1,11.21,11.22Z"/><path class="cls-1" d="M380,204.07H358.78a2.77,2.77,0,0,0-2.76,2.77v1a2.77,2.77,0,0,0,2.76,2.76H380a2.77,2.77,0,0,0,2.77-2.76v-1A2.77,2.77,0,0,0,380,204.07Z"/></g></g></svg>