<?xml version="1.0" encoding="utf-8"?>
<!-- Generator: Adobe Illustrator 25.4.1, SVG Export Plug-In . SVG Version: 6.00 Build 0)  -->
<svg version="1.1" id="Ebene_1" xmlns="http://www.w3.org/2000/svg" xmlns:xlink="http://www.w3.org/1999/xlink" x="0px" y="0px"
	 viewBox="0 0 442.5 442.5" style="enable-background:new 0 0 442.5 442.5;" xml:space="preserve">
<style type="text/css">
	.st0{fill:#A72727;}
</style>
<g id="Ebene_2_00000166644028707835840290000010881373937813945730_">
	<g id="Layer_1">
		<path class="st0" d="M76.8,442.5c-9.8,0-19.6-1.9-28.7-5.5c-4.1-1.6-6.1-6.3-4.4-10.4c0.4-1,1-1.9,1.8-2.7l41-41L59.7,356l-41,41
			c-3.1,3.1-8.2,3.1-11.3,0c-0.8-0.8-1.4-1.7-1.8-2.7c-15.8-39.4,3.3-84.1,42.6-99.9c15.3-6.2,32.3-7.2,48.3-3l67-66.9l11.3,11.3
			l-70.3,70.3c-2.1,2.2-5.3,2.9-8.2,1.9c-31.8-10.7-66.3,6.4-77,38.2c-3.2,9.6-4,19.8-2.3,29.8l37-37.1c3.1-3.1,8.2-3.1,11.3,0
			l38.1,38.1c3.1,3.1,3.1,8.2,0,11.3c0,0,0,0,0,0l-37.1,37.1c33.1,5.8,64.6-16.4,70.3-49.5c1.7-10,1-20.2-2.3-29.8
			c-1-2.9-0.2-6.1,1.9-8.2l37.3-37.3l11.3,11.3L151,346.1c10.8,41-13.6,83.1-54.7,93.9C90,441.7,83.4,442.5,76.8,442.5L76.8,442.5z"
			/>
		<path class="st0" d="M306,191.1l-11.3-11.3l43.5-43.5c2.1-2.2,5.3-2.9,8.2-1.9c31.8,10.7,66.3-6.4,77-38.3
			c3.2-9.6,4-19.8,2.3-29.8l-37.8,37.8c-1.5,1.5-3.5,2.3-5.7,2.3l0,0c-2.1,0-4.2-0.8-5.7-2.3L338.4,66c-3.1-3.1-3.1-8.2,0-11.3
			l37.8-37.8c-33.1-5.7-64.5,16.4-70.3,49.5c-1.7,10-0.9,20.2,2.3,29.8c1,2.9,0.2,6.1-1.9,8.2l-70.8,70.8l-11.3-11.3l67.4-67.3
			c-10.9-41,13.5-83,54.5-93.9c16-4.3,33-3.2,48.4,3c4.1,1.7,6.1,6.3,4.4,10.4c-0.4,1-1,1.9-1.8,2.7l-41.7,41.7l26.8,26.8l41.7-41.7
			c3.1-3.1,8.2-3.2,11.3-0.1c0.8,0.8,1.4,1.7,1.8,2.7c15.8,39.4-3.3,84.1-42.7,99.9c-15.3,6.2-32.3,7.2-48.3,3L306,191.1z"/>
		<path class="st0" d="M397.2,442.5c-14.1,0-29-6-40.6-17.6L250.2,318.5c-3.3-3.4-7.5-5.8-12.1-7l-29.6-7.5
			c-7.4-1.9-14.1-5.8-19.5-11.2c-14.9-14.9-16.5-37.5-3.6-50.4l54.4-54.4c6.5-6.4,15.4-9.5,25.2-8.6c9.6,1,18.5,5.3,25.2,12.2l0,0
			c5.4,5.4,9.3,12.1,11.2,19.5l7.4,29.6c1.2,4.6,3.6,8.8,7,12.1l106.4,106.3c10,10,16.2,22.8,17.5,36c1.2,13.7-3,26.2-12,35.2
			C419.6,438.5,408.7,442.5,397.2,442.5z M261.8,195.1c-4-0.1-7.8,1.4-10.6,4.1l-54.4,54.4c-6.7,6.7-5.1,19.2,3.6,27.8
			c3.3,3.4,7.5,5.8,12.1,7L242,296c7.4,1.9,14.1,5.8,19.5,11.2l106.4,106.3c14.9,14.9,36.7,17.4,48.6,5.5s9.4-33.7-5.5-48.6
			L304.6,264.1c-5.4-5.4-9.3-12.1-11.2-19.5L286,215c-1.2-4.6-3.6-8.8-7-12.1l0,0C273.9,197.8,267.5,195.1,261.8,195.1z"/>
		
			<rect x="337.6" y="287.1" transform="matrix(0.7071 -0.7071 0.7071 0.7071 -144.9533 346.3392)" class="st0" width="16" height="122"/>
		<path class="st0" d="M203.8,243.3c-2.1,0-4.2-0.8-5.6-2.4L55,97.8l-25-5c-2.5-0.5-4.7-2.2-5.7-4.6L1.9,37.5
			c-1.3-3-0.7-6.6,1.7-8.9L26,6.1c2.3-2.3,5.9-3,8.9-1.7l50.7,22.4c2.4,1.1,4.1,3.2,4.6,5.7l5.1,25l143.1,143.1
			c3.1,3.1,3.1,8.2,0,11.3l-28.9,29C207.9,242.5,205.9,243.3,203.8,243.3z M37.2,77.9l23.3,4.7c1.5,0.3,3,1.1,4.1,2.2L203.8,224
			l17.6-17.6L82.3,67.2c-1.1-1.1-1.9-2.5-2.2-4.1l-4.7-23.3L33.5,21.3L18.7,36L37.2,77.9z"/>
	</g>
</g>
</svg>
