<?xml version="1.0" encoding="utf-8"?>
<!-- Generator: Adobe Illustrator 25.4.1, SVG Export Plug-In . SVG Version: 6.00 Build 0)  -->
<svg version="1.1" id="Ebene_1" xmlns="http://www.w3.org/2000/svg" xmlns:xlink="http://www.w3.org/1999/xlink" x="0px" y="0px"
	 viewBox="0 0 329.5 289.5" style="enable-background:new 0 0 329.5 289.5;" xml:space="preserve">
<style type="text/css">
	.st0{fill:#A72727;}
</style>
<g id="Ebene_2_00000163035092264765779000000007645570501981507726_">
	<g id="Layer_1">
		<path class="st0" d="M329.5,95c0-3.7-3-6.7-6.8-6.8h-46.2C261.8,26.5,199.8-11.6,138,3.2c-42.1,10.1-75,43-85.1,85.1H6.8
			C3,88.2,0,91.3,0,95v171.1l0,0v12.1c0,6.2,5.1,11.3,11.3,11.3h306.9c6.2,0,11.3-5.1,11.3-11.3v-12.1l0,0L329.5,95z M62.7,91.8
			c12.8-56.4,68.9-91.8,125.3-79s91.8,68.9,79,125.3c-3.7,16.5-11.4,31.8-22.4,44.7c-0.9-6-4.4-20.3-18.1-25.3L193,136.8
			c-2.5-3.7-4.6-7.7-6.4-11.8c3-2.8,5.6-6.1,7.7-9.6c0.1-0.2,0.3-0.3,0.6-0.3c0.4,0.1,0.8,0,1.1-0.1c3.6-0.9,7.5-8.3,8.6-10.6
			c1.4-2.9,2.6-6,3.4-9.2h0.6v-3.5c0.1-1.1,0.1-2.2,0-3.2v-0.2l0,0c-0.4-3.1-2-5.1-4.6-5.9c7.3-25.4-1.5-31-3.8-32
			c-0.3-0.1-0.7-0.1-1,0.1l-6.3,4.6l-0.4,0.3l-1.8,1.3l-0.6,0.5l-4.2,3c-0.4,0.3-0.5,0.9-0.2,1.4c0,0,0,0,0,0
			c6.3,8.9,9.8,19.3,10.3,30.2v3.5h4.9v-3.5c0.8-2.2,1.5-4.2,2.1-6.2c1.3,0.4,2,1.3,2.2,2.9v3.2l0,0c-0.6,4-1.9,7.9-3.7,11.5
			c-1.3,2.9-3.1,5.6-5.3,7.9c-0.2,0.2-0.6,0.3-0.8,0c-0.1-0.1-0.1-0.2-0.2-0.3l-0.5-1.2c-0.1-0.3-0.5-0.4-0.8-0.3
			c-0.1,0-0.2,0.1-0.3,0.3l-1.1,2.1c-4.5,8.4-10.5,14.2-17.9,17.5c-3.1,1.4-6.4,2.2-9.8,2.4h-0.1c-0.6,0-17-0.2-27.7-19.9l-1.1-2.1
			c-0.2-0.3-0.5-0.4-0.8-0.2c-0.1,0.1-0.2,0.2-0.3,0.3l-0.5,1.2c-0.1,0.3-0.4,0.5-0.7,0.4c-0.1,0-0.2-0.1-0.3-0.2
			c-2.2-2.3-4-5-5.3-7.9c-1.9-3.6-3.1-7.5-3.7-11.5l0,0v-3.2c0.3-1.7,1-2.6,2.3-3c0.7,2.5,1.3,4.6,1.9,6.2v3.5h4.5v-0.6
			c0.1-0.2,0.2-0.4,0.2-0.6c-0.1-0.8-0.1-1.5-0.2-2.3v-3.4l0,0c0.7-19.4,18.1-14,19.6-13.5c0.1,0,0.2,0,0.2,0
			c22.4,2,28.6-11.5,29.3-13.5c0.1-0.2,0.2-0.3,0.3-0.4l5.9-4.9l2.7-2.2l6.6-5.5c0.3-0.3,0.4-0.7,0.3-1.1
			c-4.8-16-41.9-13.5-41.9-13.5c-34.6,3.7-33.9,31.6-30.1,48.5c-2.7,0.7-4.4,2.8-4.8,5.9l0,0v0.2c-0.1,1.1-0.1,2.2,0,3.2v3.5h0.6
			c0.8,3.2,1.9,6.3,3.4,9.2c1.1,2.2,5,9.7,8.6,10.6c0.4,0.1,0.8,0.1,1.1,0.1c0.2,0,0.4,0.1,0.6,0.3c2,3.4,4.5,6.5,7.3,9.3l0,0
			c-1.8,4.3-4,8.5-6.5,12.4l-33.1,20.5c-13.6,5-17.2,19.3-18.1,25.3C63.6,157.7,55.3,123.9,62.7,91.8L62.7,91.8z M192.1,140.5
			c-1.3,6.8-6.5,19.8-27.4,20.5c-21.1-0.7-26.2-14-27.4-20.7c2.9-3.1,6.3-10.5,7.6-13.5c2.7,2.2,5.6,4.1,8.8,5.5
			c3.4,1.6,7.2,2.5,10.9,2.6h0.1c3.8-0.2,7.5-1,10.9-2.6c3-1.3,5.9-3.1,8.4-5.2C185.6,130.1,189,136.8,192.1,140.5z M7,95.2h44.5
			c-10.9,62.6,30.9,122.2,93.5,133.1c62.6,10.9,122.2-30.9,133.1-93.5c2.3-13.1,2.3-26.5,0-39.6h44.5v164H194.1
			c-1.9,0-3.5,1.6-3.5,3.5l0,0c0,1-0.8,1.7-1.8,1.8h-48.1c-1,0-1.7-0.8-1.8-1.8c0-1.9-1.6-3.5-3.5-3.5l0,0H7V95.2z M322.6,278.2
			c0,2.4-1.9,4.4-4.4,4.4l0,0H11.3c-2.4,0-4.3-2-4.3-4.4v-12.1h125.7c1.4,3.2,4.5,5.2,8,5.2h48.1c3.5,0,6.6-2.1,8-5.2h125.7
			L322.6,278.2z"/>
	</g>
</g>
</svg>
