<svg xmlns="http://www.w3.org/2000/svg" viewBox="0 0 329.52 289.55"><defs><style>.cls-1{fill:#474747;}</style></defs><g id="Ebene_2" data-name="Ebene 2"><g id="Layer_1" data-name="Layer 1"><path class="cls-1" d="M329.52,95a6.76,6.76,0,0,0-6.75-6.75H276.6a115,115,0,0,0-223.68,0H6.76A6.76,6.76,0,0,0,0,95V266.15H0v12.09a11.33,11.33,0,0,0,11.32,11.31H318.2a11.33,11.33,0,0,0,11.32-11.31V266.15h0ZM62.65,91.75a104.71,104.71,0,1,1,181.87,91c-.89-6-4.43-20.27-18.07-25.29L193,136.76A83.19,83.19,0,0,1,186.56,125a45.44,45.44,0,0,0,7.66-9.61.62.62,0,0,1,.58-.28,2.8,2.8,0,0,0,1.14-.07c3.61-.91,7.47-8.34,8.56-10.58a46.92,46.92,0,0,0,3.37-9.19h.6V91.75a16.59,16.59,0,0,0,0-3.23v-.25h0c-.43-3.07-2-5.12-4.57-5.88,7.29-25.36-1.46-31-3.84-32a1,1,0,0,0-1,.11l-6.3,4.58-.36.26-1.82,1.32-.65.47-4.18,3a1,1,0,0,0-.22,1.4,56.71,56.71,0,0,1,10.33,30.19v3.49h4.92V91.75c.81-2.17,1.52-4.21,2.13-6.16,1.26.36,2,1.31,2.21,2.94v3.22h0a37.22,37.22,0,0,1-3.72,11.47,28.61,28.61,0,0,1-5.26,7.87.59.59,0,0,1-1-.22l-.48-1.23a.59.59,0,0,0-1.06-.07l-1.11,2.06C188,120,182,125.83,174.57,129.08a26.38,26.38,0,0,1-9.78,2.42h-.07c-.61,0-17-.23-27.71-19.87l-1.11-2.06a.59.59,0,0,0-1.06.07l-.48,1.23a.58.58,0,0,1-1,.22,28.61,28.61,0,0,1-5.26-7.87,37.22,37.22,0,0,1-3.72-11.47h0V88.54c.27-1.67,1-2.62,2.26-3,.65,2.46,1.32,4.57,1.87,6.17v3.49h4.49v-.58a1,1,0,0,0,.17-.64c-.08-.79-.14-1.54-.17-2.26V88.27h0c.71-19.43,18.06-14,19.6-13.46a1,1,0,0,0,.25,0c22.4,2,28.55-11.5,29.31-13.45a1,1,0,0,1,.29-.4l5.91-4.93,2.7-2.24,6.55-5.46a1,1,0,0,0,.33-1.07c-4.8-16-41.92-13.45-41.92-13.45-34.63,3.66-33.88,31.62-30.13,48.47-2.68.69-4.38,2.77-4.82,5.94h0v.25a15.16,15.16,0,0,0,0,3.23v3.49h.59a47.58,47.58,0,0,0,3.37,9.19c1.09,2.24,5,9.67,8.56,10.58a2.85,2.85,0,0,0,1.15.07.6.6,0,0,1,.57.28,46,46,0,0,0,7.32,9.28h0A78.93,78.93,0,0,1,136.14,137l-33.07,20.49c-13.64,5-17.18,19.32-18.06,25.29a104.64,104.64,0,0,1-22.36-91Zm129.47,48.74c-1.31,6.76-6.53,19.76-27.36,20.46-21.08-.71-26.18-14-27.41-20.71,2.9-3.14,6.29-10.49,7.6-13.49a37.39,37.39,0,0,0,8.82,5.48,29.32,29.32,0,0,0,10.95,2.62h.08a29.32,29.32,0,0,0,10.95-2.62,37.12,37.12,0,0,0,8.45-5.18C185.65,130.15,189,136.82,192.12,140.49ZM7,95.24H51.48a115,115,0,1,0,226.56,0h44.52v164H194.05a3.48,3.48,0,0,0-3.48,3.48,1.79,1.79,0,0,1-1.76,1.76h-48.1a1.79,1.79,0,0,1-1.76-1.76,3.48,3.48,0,0,0-3.48-3.48H7Zm315.59,183a4.35,4.35,0,0,1-4.35,4.35H11.32A4.35,4.35,0,0,1,7,278.24V266.15H132.71a8.75,8.75,0,0,0,8,5.24h48.1a8.75,8.75,0,0,0,8-5.24H322.55Z"/></g></g></svg>