<?xml version="1.0" encoding="utf-8"?>
<!-- Generator: Adobe Illustrator 25.4.1, SVG Export Plug-In . SVG Version: 6.00 Build 0)  -->
<svg version="1.1" id="Ebene_1" xmlns="http://www.w3.org/2000/svg" xmlns:xlink="http://www.w3.org/1999/xlink" x="0px" y="0px"
	 viewBox="0 0 344 298.6" style="enable-background:new 0 0 344 298.6;" xml:space="preserve">
<style type="text/css">
	.st0{fill:#A72727;}
</style>
<g id="Ebene_2_00000133486912763093675610000000312295877045188488_">
	<g id="Layer_1">
		<path class="st0" d="M196.9,41h89.4c1.9,0,3.5-1.6,3.5-3.5s-1.6-3.5-3.5-3.5h-89.4c-1.9,0-3.5,1.6-3.5,3.5S194.9,41,196.9,41z"/>
		<path class="st0" d="M57.7,82.5h96.6c1.9,0,3.5-1.6,3.5-3.5V37.6c0-1.9-1.5-3.5-3.5-3.5c0,0,0,0,0,0H57.7c-1.9,0-3.5,1.6-3.5,3.5
			c0,0,0,0,0,0V79C54.2,80.9,55.8,82.5,57.7,82.5C57.7,82.5,57.7,82.5,57.7,82.5z M61.2,41.1h89.7v34.5H61.2V41.1z"/>
		<path class="st0" d="M196.9,61.8h89.4c1.9,0,3.5-1.6,3.5-3.5s-1.6-3.5-3.5-3.5h-89.4c-1.9,0-3.5,1.6-3.5,3.5
			S194.9,61.8,196.9,61.8z"/>
		<path class="st0" d="M196.9,82.5h54.6c1.9,0,3.5-1.6,3.5-3.5s-1.6-3.5-3.5-3.5h-54.6c-1.9,0-3.5,1.6-3.5,3.5
			S194.9,82.5,196.9,82.5z"/>
		<path class="st0" d="M62.5,125.2c0,12.9,10.5,23.4,23.4,23.4s23.4-10.5,23.4-23.4s-10.5-23.4-23.4-23.4
			C73,101.8,62.5,112.3,62.5,125.2z M102.4,125.2c0,9.1-7.4,16.5-16.5,16.5s-16.5-7.4-16.5-16.5c0-9.1,7.4-16.5,16.4-16.5
			c0,0,0,0,0,0C95,108.8,102.4,116.2,102.4,125.2z"/>
		<path class="st0" d="M148.6,125.2c0,12.9,10.5,23.4,23.4,23.4s23.4-10.5,23.4-23.4s-10.5-23.4-23.4-23.4l0,0
			C159.1,101.8,148.6,112.3,148.6,125.2z M172,108.8c9.1,0,16.5,7.4,16.5,16.5s-7.4,16.5-16.5,16.5c-9.1,0-16.5-7.4-16.5-16.5
			c0,0,0,0,0,0C155.6,116.2,162.9,108.8,172,108.8z"/>
		<path class="st0" d="M281.5,125.2c0-12.9-10.5-23.4-23.4-23.4c-12.9,0-23.4,10.5-23.4,23.4c0,12.9,10.5,23.4,23.4,23.4
			c0,0,0,0,0,0C271,148.6,281.5,138.2,281.5,125.2z M241.6,125.2c0-9.1,7.4-16.5,16.5-16.5c9.1,0,16.5,7.4,16.5,16.5
			s-7.4,16.5-16.5,16.5l0,0C249,141.7,241.6,134.3,241.6,125.2L241.6,125.2z"/>
		<path class="st0" d="M57.3,164.3h56.3c1.9,0,3.5-1.6,3.5-3.5s-1.6-3.5-3.5-3.5H57.3c-1.9,0-3.5,1.6-3.5,3.5S55.4,164.3,57.3,164.3
			z"/>
		<path class="st0" d="M200.1,157.3h-56.3c-1.9,0-3.5,1.6-3.5,3.5s1.6,3.5,3.5,3.5h56.3c1.9,0,3.5-1.6,3.5-3.5
			S202.1,157.3,200.1,157.3L200.1,157.3z"/>
		<path class="st0" d="M286.7,157.3h-56.3c-1.9,0-3.5,1.6-3.5,3.5s1.6,3.5,3.5,3.5h56.3c1.9,0,3.5-1.6,3.5-3.5
			S288.6,157.3,286.7,157.3L286.7,157.3z"/>
		<path class="st0" d="M329.1,0H14.9C6.7,0,0,6.7,0,14.9v213.4c0,8.2,6.7,14.9,14.9,14.9h118c0.4,3.9,0.5,11.2-3.5,17.1
			c-3.1,4.7-8.3,7.7-15.5,8.9H94.3c-9.1,0-16.4,6.1-16.4,13.7v12.2c0,1.9,1.6,3.5,3.5,3.5c0,0,0,0,0,0h181.2c1.9,0,3.5-1.6,3.5-3.5
			c0,0,0,0,0,0v-12.2c0-7.5-7.4-13.7-16.4-13.7h-19.6c-7.1-1.2-12.3-4.2-15.4-8.8c-4-5.9-3.9-13.3-3.5-17.2h118
			c8.2-0.1,14.9-6.7,14.9-14.9V14.9C344,6.7,337.3,0,329.1,0z M7,14.9c0-4.4,3.6-8,8-8h314.1c4.4,0,8,3.6,8,8v172.2H7V14.9z
			 M337,228.4c0,4.4-3.6,8-8,8H208.1c-1.6,0-3,1.1-3.4,2.7c-0.1,0.6-3.2,14.4,4.1,25.3c4.3,6.4,11.2,10.4,20.4,11.9
			c0.2,0,0.4,0,0.6,0h19.9c5.1,0,9.5,3.1,9.5,6.7v8.7H84.9v-8.7c0-3.6,4.3-6.7,9.5-6.7h19.9c0.2,0,0.4,0,0.6,0
			c9.3-1.5,16.1-5.5,20.4-11.9c7.3-10.9,4.2-24.7,4-25.3c-0.4-1.6-1.8-2.7-3.4-2.7H14.9c-4.4,0-8-3.6-8-8v-34.2H337V228.4z"/>
	</g>
</g>
</svg>
