<svg xmlns="http://www.w3.org/2000/svg" viewBox="0 0 344 298.63"><defs><style>.cls-1{fill:#474747;}</style></defs><g id="Ebene_2" data-name="Ebene 2"><g id="Layer_1" data-name="Layer 1"><path class="cls-1" d="M196.87,41.05h89.4a3.48,3.48,0,1,0,0-7h-89.4a3.48,3.48,0,0,0,0,7Z"/><path class="cls-1" d="M57.72,82.48h96.63A3.48,3.48,0,0,0,157.83,79V37.58a3.48,3.48,0,0,0-3.48-3.49H57.72a3.48,3.48,0,0,0-3.48,3.49V79A3.48,3.48,0,0,0,57.72,82.48ZM61.2,41.06h89.67V75.52H61.2Z"/><path class="cls-1" d="M196.87,61.77h89.4a3.49,3.49,0,0,0,0-7h-89.4a3.49,3.49,0,0,0,0,7Z"/><path class="cls-1" d="M196.87,82.48h54.58a3.48,3.48,0,1,0,0-7H196.87a3.48,3.48,0,0,0,0,7Z"/><path class="cls-1" d="M62.51,125.24a23.42,23.42,0,1,0,23.42-23.42A23.45,23.45,0,0,0,62.51,125.24Zm39.88,0a16.46,16.46,0,1,1-16.46-16.45A16.48,16.48,0,0,1,102.39,125.24Z"/><path class="cls-1" d="M148.58,125.24A23.42,23.42,0,1,0,172,101.82,23.44,23.44,0,0,0,148.58,125.24ZM172,108.79a16.46,16.46,0,1,1-16.46,16.45A16.47,16.47,0,0,1,172,108.79Z"/><path class="cls-1" d="M281.49,125.24a23.43,23.43,0,1,0-23.42,23.42A23.45,23.45,0,0,0,281.49,125.24Zm-39.88,0a16.46,16.46,0,1,1,16.46,16.46A16.47,16.47,0,0,1,241.61,125.24Z"/><path class="cls-1" d="M57.29,164.27h56.28a3.48,3.48,0,1,0,0-7H57.29a3.48,3.48,0,1,0,0,7Z"/><path class="cls-1" d="M200.14,157.31H143.86a3.48,3.48,0,1,0,0,7h56.28a3.48,3.48,0,1,0,0-7Z"/><path class="cls-1" d="M286.71,157.31H230.43a3.48,3.48,0,1,0,0,7h56.28a3.48,3.48,0,1,0,0-7Z"/><path class="cls-1" d="M329.07,0H14.93A15,15,0,0,0,0,14.93V228.35a15,15,0,0,0,14.93,14.93h118c.41,3.87.5,11.19-3.47,17.12-3.13,4.68-8.34,7.67-15.47,8.88H94.35c-9.06,0-16.43,6.13-16.43,13.66v12.21a3.48,3.48,0,0,0,3.49,3.48H262.59a3.48,3.48,0,0,0,3.48-3.48V282.94c0-7.53-7.37-13.66-16.42-13.66h-19.6c-7.12-1.21-12.31-4.18-15.45-8.84-4-5.89-3.89-13.27-3.49-17.16h118A15,15,0,0,0,344,228.35V14.93A15,15,0,0,0,329.07,0ZM7,14.93a8,8,0,0,1,8-8H329.07a8,8,0,0,1,8,8V187.15H7ZM337,228.35a8,8,0,0,1-8,8H208.12a3.49,3.49,0,0,0-3.39,2.68c-.13.58-3.25,14.35,4.06,25.27,4.29,6.42,11.16,10.43,20.41,11.93a3.52,3.52,0,0,0,.56,0h19.89c5.12,0,9.46,3.07,9.46,6.7v8.73H84.89v-8.73c0-3.63,4.33-6.7,9.46-6.7h19.89a3.39,3.39,0,0,0,.55,0c9.26-1.5,16.13-5.51,20.42-11.93,7.31-10.92,4.19-24.69,4-25.27a3.48,3.48,0,0,0-3.39-2.68H14.93a8,8,0,0,1-8-8V194.11H337Z"/></g></g></svg>