<svg xmlns="http://www.w3.org/2000/svg" viewBox="0 0 283.44 237.12"><defs><style>.cls-1{fill:#474747;}</style></defs><g id="Ebene_2" data-name="Ebene 2"><g id="Layer_1" data-name="Layer 1"><path class="cls-1" d="M280,52.89H3.48A3.48,3.48,0,0,1,0,49.4V3.48A3.48,3.48,0,0,1,3.48,0H136.16a3.49,3.49,0,0,1,2.46,1L160,22.37H280a3.48,3.48,0,0,1,3.48,3.48V49.4A3.48,3.48,0,0,1,280,52.89Zm-273-7H276.48V29.33h-118a3.43,3.43,0,0,1-2.46-1L134.72,7H7Z"/><circle class="cls-1" cx="21.06" cy="21.49" r="6.82"/><path class="cls-1" d="M41,28.31a6.82,6.82,0,1,1,6.82-6.82A6.82,6.82,0,0,1,41,28.31Z"/><circle class="cls-1" cx="60.94" cy="21.49" r="6.82"/><path class="cls-1" d="M276.72,237.12H6.72A6.73,6.73,0,0,1,0,230.4V45.92H283.44V230.4A6.73,6.73,0,0,1,276.72,237.12ZM7,230.16H276.48V52.89H7Z"/><path class="cls-1" d="M123.63,167.12H27a3.48,3.48,0,0,1-3.48-3.49v-59.1A3.48,3.48,0,0,1,27,101.05h96.62a3.48,3.48,0,0,1,3.48,3.48v59.1A3.48,3.48,0,0,1,123.63,167.12Zm-93.14-7h89.66V108H30.49Z"/><path class="cls-1" d="M123.63,167.12a3.42,3.42,0,0,1-1.82-.52L75.32,138.17,28.83,166.6l-3.64-5.94,43.46-26.58L25.19,107.5l3.64-5.94L75.32,130l46.49-28.44a3.49,3.49,0,0,1,5.3,3v59.1a3.48,3.48,0,0,1-1.78,3A3.43,3.43,0,0,1,123.63,167.12ZM82,134.08l38.16,23.34V110.75Z"/><path class="cls-1" d="M250.9,107.28H161.5a3.49,3.49,0,1,1,0-7h89.4a3.49,3.49,0,0,1,0,7Z"/><path class="cls-1" d="M250.9,137.57H161.5a3.49,3.49,0,1,1,0-7h89.4a3.49,3.49,0,0,1,0,7Z"/><path class="cls-1" d="M216.08,167.85H161.5a3.48,3.48,0,1,1,0-7h54.58a3.48,3.48,0,0,1,0,7Z"/><path class="cls-1" d="M250.9,82.14H27a3.49,3.49,0,0,1,0-7H250.9a3.49,3.49,0,0,1,0,7Z"/><path class="cls-1" d="M123.63,197.4H27a3.48,3.48,0,1,1,0-7h96.62a3.48,3.48,0,1,1,0,7Z"/><path class="cls-1" d="M250.9,197.4H154.28a3.48,3.48,0,1,1,0-7H250.9a3.48,3.48,0,0,1,0,7Z"/></g></g></svg>