<svg xmlns="http://www.w3.org/2000/svg" viewBox="0 0 36.27 22.2"><defs><style>.cls-1{fill:#fff;}</style></defs><g id="Ebene_2" data-name="Ebene 2"><g id="Ńëîé_1" data-name="Ńëîé 1"><path class="cls-1" d="M28.65,5.53c-8.34,0-8.35,8.31-8.35,8.35s-.57,8.31,8.35,8.31c0,0,6.71.38,7.38-4.9a.78.78,0,0,0-.77-.88H32.93a.75.75,0,0,0-.74.54c-.21.69-.92,1.79-3.41,1.79,0,0-3.24.22-3.75-2.88A.77.77,0,0,1,25.8,15h9.69a.78.78,0,0,0,.78-.75C36.34,12,35.93,5.53,28.65,5.53ZM25.5,12.06a.46.46,0,0,1-.44-.59,3.71,3.71,0,0,1,3.67-2.75A3.08,3.08,0,0,1,32,11.54a.45.45,0,0,1-.45.52Zm-10-1.94a.32.32,0,0,1-.05-.59,3.82,3.82,0,0,0,2-3.74C17.45,1.9,14.75,0,11.31,0H.57A.58.58,0,0,0,0,.57v20.6a.58.58,0,0,0,.57.57H11.31s6.91.21,6.91-6.42C18.22,15.32,18.45,11.1,15.48,10.12ZM5,4.27a.42.42,0,0,1,.42-.41h5.91s1.53,0,1.53,2.26-.9,2.6-1.92,2.6H5.4A.42.42,0,0,1,5,8.3Zm6,13.61H5.4A.42.42,0,0,1,5,17.46v-5a.41.41,0,0,1,.42-.41h5.91s2.29,0,2.28,3C13.59,17.59,11.89,17.86,11,17.88Zm13-17V2.73a.42.42,0,0,0,.41.41h8.16a.41.41,0,0,0,.4-.41V.87a.4.4,0,0,0-.4-.41H24.38A.41.41,0,0,0,24,.87Z"/></g></g></svg>