<svg xmlns="http://www.w3.org/2000/svg" viewBox="0 0 57.95 57.95"><defs><style>.cls-1{fill:#1c1c1c;}.cls-2{fill:#a72727;}</style></defs><g id="Ebene_2" data-name="Ebene 2"><g id="Ebene_1-2" data-name="Ebene 1"><path class="cls-1" d="M36.53,25c-6,0-6,6-6,6a5.55,5.55,0,0,0,6,6s4.83.27,5.31-3.53a.56.56,0,0,0-.56-.63H39.6a.55.55,0,0,0-.53.39c-.14.49-.66,1.29-2.45,1.29a2.54,2.54,0,0,1-2.69-2.08.56.56,0,0,1,.55-.64h7a.55.55,0,0,0,.56-.53C42.06,29.62,41.77,25,36.53,25Zm-2.27,4.69a.32.32,0,0,1-.31-.42,2.68,2.68,0,0,1,2.64-2,2.21,2.21,0,0,1,2.35,2,.32.32,0,0,1-.32.37Zm-7.19-1.39a.23.23,0,0,1,0-.43,2.74,2.74,0,0,0,1.45-2.69c0-2.79-1.94-4.16-4.41-4.16H16.35a.41.41,0,0,0-.41.42v14.8a.41.41,0,0,0,.41.41h7.71s5,.15,5-4.61C29,32,29.2,29,27.07,28.27Zm-7.55-4.2a.29.29,0,0,1,.29-.3h4.26s1.1,0,1.1,1.63-.65,1.86-1.39,1.86h-4a.29.29,0,0,1-.29-.3Zm4.32,9.78h-4a.3.3,0,0,1-.29-.3V30a.3.3,0,0,1,.29-.3h4.26s1.65,0,1.64,2.15C25.71,33.64,24.48,33.83,23.84,33.85Zm9.33-12.23V23a.29.29,0,0,0,.29.29h5.86a.29.29,0,0,0,.3-.29V21.62a.3.3,0,0,0-.3-.3H33.46A.3.3,0,0,0,33.17,21.62Z"/><path class="cls-2" d="M29,58A29,29,0,1,1,58,29,29,29,0,0,1,29,58Zm0-55.6A26.62,26.62,0,1,0,55.59,29,26.66,26.66,0,0,0,29,2.35Z"/></g></g></svg>