<svg xmlns="http://www.w3.org/2000/svg" viewBox="0 0 39.93 39.93"><defs><style>.cls-1{fill:#fff;}</style></defs><g id="Ebene_2" data-name="Ebene 2"><g id="Ńëîé_1" data-name="Ńëîé 1"><path class="cls-1" d="M31.22,39.93H8.7A8.71,8.71,0,0,1,0,31.23V8.7A8.71,8.71,0,0,1,8.7,0H31.22a8.71,8.71,0,0,1,8.71,8.7V31.23A8.72,8.72,0,0,1,31.22,39.93ZM8.7,1.7a7,7,0,0,0-7,7V31.23a7,7,0,0,0,7,7H31.22a7,7,0,0,0,7-7V8.7a7,7,0,0,0-7-7Z"/><path class="cls-1" d="M28.39,16c-6,0-6,6-6,6a5.55,5.55,0,0,0,6,6s4.82.28,5.31-3.52a.57.57,0,0,0-.56-.64H31.46a.56.56,0,0,0-.53.39c-.14.5-.66,1.29-2.45,1.29a2.52,2.52,0,0,1-2.69-2.07.55.55,0,0,1,.55-.64h7a.55.55,0,0,0,.55-.54C33.92,20.62,33.62,16,28.39,16Zm-2.27,4.7a.33.33,0,0,1-.31-.43,2.67,2.67,0,0,1,2.64-2,2.21,2.21,0,0,1,2.35,2,.33.33,0,0,1-.32.37Zm-7.19-1.39a.23.23,0,0,1,0-.43,2.77,2.77,0,0,0,1.45-2.69c0-2.79-1.94-4.16-4.42-4.16H8.21a.41.41,0,0,0-.41.41v14.8a.41.41,0,0,0,.41.41h7.71s5,.16,5-4.61C20.89,23,21.06,20,18.93,19.28Zm-7.55-4.21a.3.3,0,0,1,.29-.3h4.25S17,14.77,17,16.4s-.65,1.86-1.39,1.86h-4a.29.29,0,0,1-.29-.29Zm4.32,9.78h-4a.29.29,0,0,1-.29-.3V21a.29.29,0,0,1,.29-.29h4.25s1.65,0,1.65,2.15C17.57,24.64,16.34,24.83,15.7,24.85ZM25,12.62V14a.29.29,0,0,0,.29.29h5.86a.29.29,0,0,0,.3-.29V12.62a.29.29,0,0,0-.3-.29H25.32A.29.29,0,0,0,25,12.62Z"/></g></g></svg>