<svg xmlns="http://www.w3.org/2000/svg" viewBox="0 0 39.93 39.93"><defs><style>.cls-1{fill:#474747;}</style></defs><g id="Ebene_2" data-name="Ebene 2"><g id="Ńëîé_1" data-name="Ńëîé 1"><path class="cls-1" d="M31.22,39.93H8.7A8.71,8.71,0,0,1,0,31.22V8.7A8.71,8.71,0,0,1,8.7,0H31.22a8.71,8.71,0,0,1,8.71,8.7V31.22A8.72,8.72,0,0,1,31.22,39.93ZM8.7,1.7a7,7,0,0,0-7,7V31.22a7,7,0,0,0,7,7H31.22a7,7,0,0,0,7-7V8.7a7,7,0,0,0-7-7Z"/><path class="cls-1" d="M21,9A11.19,11.19,0,1,0,31.11,19.11,11.19,11.19,0,0,0,21,9Zm6.34,5.63a9.07,9.07,0,0,1,1.83,5,.18.18,0,0,1-.21.18,16.93,16.93,0,0,0-5.81-.23.17.17,0,0,1-.18-.1c-.21-.5-.43-1-.64-1.44a.16.16,0,0,1,.08-.22,15.6,15.6,0,0,0,4.67-3.23A.17.17,0,0,1,27.32,14.62Zm-1.64-1.45a13.6,13.6,0,0,1-4.2,2.91.18.18,0,0,1-.22-.08,35,35,0,0,0-3-4.65.17.17,0,0,1,.1-.28A9.66,9.66,0,0,1,20,10.93a9.14,9.14,0,0,1,5.7,2A.18.18,0,0,1,25.68,13.17Zm-9.54-1.26a33,33,0,0,1,3.21,4.73.18.18,0,0,1-.1.25,33.65,33.65,0,0,1-8,1.11.18.18,0,0,1-.18-.22,9.28,9.28,0,0,1,4.86-5.92A.19.19,0,0,1,16.14,11.91ZM10.93,20a35.18,35.18,0,0,0,9.3-1.34.18.18,0,0,1,.21.08c.17.37.35.76.52,1.15a.17.17,0,0,1-.11.23,16.6,16.6,0,0,0-7.8,5.77.17.17,0,0,1-.26,0,8.61,8.61,0,0,1-2-5.73A.17.17,0,0,1,10.93,20Zm3.55,7.29A14.62,14.62,0,0,1,21.61,22a.16.16,0,0,1,.21.11,34.19,34.19,0,0,1,1.63,6.42.17.17,0,0,1-.1.19,9.29,9.29,0,0,1-3.39.64,9.19,9.19,0,0,1-5.45-1.79A.18.18,0,0,1,14.48,27.29Zm10.79,0a35.81,35.81,0,0,0-1.47-5.61A.17.17,0,0,1,24,21.5a15.28,15.28,0,0,1,4.88.33A.17.17,0,0,1,29,22a9.21,9.21,0,0,1-3.42,5.41A.17.17,0,0,1,25.27,27.33Z"/></g></g></svg>