<svg xmlns="http://www.w3.org/2000/svg" viewBox="0 0 39.93 39.93"><defs><style>.cls-1{fill:#474747;}</style></defs><g id="Ebene_2" data-name="Ebene 2"><g id="Ńëîé_1" data-name="Ńëîé 1"><path class="cls-1" d="M31.23,39.93H8.7A8.71,8.71,0,0,1,0,31.22V8.7A8.71,8.71,0,0,1,8.7,0H31.23a8.71,8.71,0,0,1,8.7,8.7V31.22A8.72,8.72,0,0,1,31.23,39.93ZM8.7,1.7a7,7,0,0,0-7,7V31.22a7,7,0,0,0,7,7H31.23a7,7,0,0,0,7-7V8.7a7,7,0,0,0-7-7Z"/><path class="cls-1" d="M16.21,35h6V20h4.18l.45-5H22.2V12.11c0-1.18.24-1.65,1.39-1.65h3.24V5.25H22.68c-4.46,0-6.47,2-6.47,5.72v4H13.1v5.09h3.11Z"/></g></g></svg>