<svg xmlns="http://www.w3.org/2000/svg" viewBox="0 0 40.1 40.1"><defs><style>.cls-1{fill:#fff;}</style></defs><g id="Ebene_2" data-name="Ebene 2"><g id="Ńëîé_1" data-name="Ńëîé 1"><path class="cls-1" d="M27.75,0H12.36A12.36,12.36,0,0,0,0,12.36V27.75A12.35,12.35,0,0,0,12.36,40.1H27.75A12.35,12.35,0,0,0,40.1,27.75V12.36A12.35,12.35,0,0,0,27.75,0Zm8.51,27c0,5.51-4.48,9.23-10,9.23H13.83c-5.51,0-10-3.72-10-9.23V13.08c0-5.52,4.47-9.23,10-9.23H26.27c5.51,0,10,3.71,10,9.23ZM20.59,9.56A10.56,10.56,0,1,0,31.15,20.12,10.56,10.56,0,0,0,20.59,9.56Zm0,16.92a6.36,6.36,0,1,1,6.35-6.36A6.36,6.36,0,0,1,20.59,26.48ZM33.11,9.39a2.69,2.69,0,1,1-2.69-2.68A2.69,2.69,0,0,1,33.11,9.39Z"/></g></g></svg>