<svg xmlns="http://www.w3.org/2000/svg" viewBox="0 0 57.95 57.95"><defs><style>.cls-1{fill:#fff;}</style></defs><g id="Ebene_2" data-name="Ebene 2"><g id="Ebene_1-2" data-name="Ebene 1"><path class="cls-1" d="M29,58A29,29,0,1,1,58,29,29,29,0,0,1,29,58Zm0-55.6A26.62,26.62,0,1,0,55.59,29,26.66,26.66,0,0,0,29,2.35Z"/><path class="cls-1" d="M34.51,14.56H23.44a8.89,8.89,0,0,0-8.88,8.88V34.51a8.89,8.89,0,0,0,8.88,8.88H34.51a8.89,8.89,0,0,0,8.88-8.88V23.44A8.89,8.89,0,0,0,34.51,14.56ZM40.62,34c0,4-3.21,6.61-7.18,6.61H24.5c-4,0-7.17-2.64-7.17-6.61V23.93c0-4,3.21-6.6,7.17-6.6h8.94c4,0,7.18,2.64,7.18,6.6ZM29.36,21.43A7.6,7.6,0,1,0,37,29,7.59,7.59,0,0,0,29.36,21.43Zm0,12.16A4.57,4.57,0,1,1,33.93,29,4.57,4.57,0,0,1,29.36,33.59Zm9-12.28a1.93,1.93,0,1,1-1.93-1.93A1.93,1.93,0,0,1,38.36,21.31Z"/></g></g></svg>