<svg xmlns="http://www.w3.org/2000/svg" viewBox="0 0 39.93 39.93"><defs><style>.cls-1{fill:#fff;}</style></defs><g id="Ebene_2" data-name="Ebene 2"><g id="Ńëîé_1" data-name="Ńëîé 1"><path class="cls-1" d="M31.22,39.93H8.7A8.71,8.71,0,0,1,0,31.23V8.7A8.71,8.71,0,0,1,8.7,0H31.22a8.71,8.71,0,0,1,8.71,8.7V31.23A8.72,8.72,0,0,1,31.22,39.93ZM8.7,1.7a7,7,0,0,0-7,7V31.23a7,7,0,0,0,7,7H31.22a7,7,0,0,0,7-7V8.7a7,7,0,0,0-7-7Z"/><path class="cls-1" d="M25.5,5.55H14.43a8.89,8.89,0,0,0-8.88,8.88V25.5a8.89,8.89,0,0,0,8.88,8.88H25.5a8.89,8.89,0,0,0,8.88-8.88V14.43A8.89,8.89,0,0,0,25.5,5.55ZM31.61,25c0,4-3.21,6.61-7.18,6.61H15.49c-4,0-7.18-2.64-7.18-6.61V14.92c0-4,3.22-6.6,7.18-6.6h8.94c4,0,7.18,2.64,7.18,6.6ZM20.35,12.42A7.6,7.6,0,1,0,27.94,20,7.59,7.59,0,0,0,20.35,12.42Zm0,12.16A4.57,4.57,0,1,1,24.92,20,4.56,4.56,0,0,1,20.35,24.58Zm9-12.28a1.93,1.93,0,1,1-1.93-1.93A1.93,1.93,0,0,1,29.35,12.3Z"/></g></g></svg>