<svg xmlns="http://www.w3.org/2000/svg" viewBox="0 0 57.95 57.95"><defs><style>.cls-1{fill:#1c1c1c;}.cls-2{fill:#a72727;}</style></defs><g id="Ebene_2" data-name="Ebene 2"><g id="Ebene_1-2" data-name="Ebene 1"><path class="cls-1" d="M24,39.79A15.44,15.44,0,0,0,39.58,24.25c0-.24,0-.47,0-.71a11,11,0,0,0,2.72-2.82,11.24,11.24,0,0,1-3.13.86,5.49,5.49,0,0,0,2.4-3,10.73,10.73,0,0,1-3.47,1.33,5.47,5.47,0,0,0-9.45,3.74,5.68,5.68,0,0,0,.14,1.24,15.52,15.52,0,0,1-11.25-5.7,5.4,5.4,0,0,0-.74,2.74,5.46,5.46,0,0,0,2.43,4.55,5.48,5.48,0,0,1-2.48-.69v.07a5.47,5.47,0,0,0,4.38,5.36,5.62,5.62,0,0,1-1.44.19,5.69,5.69,0,0,1-1-.1,5.45,5.45,0,0,0,5.1,3.79A10.92,10.92,0,0,1,17,37.41a11.38,11.38,0,0,1-1.31-.07A15.47,15.47,0,0,0,24,39.79Z"/><path class="cls-2" d="M29,58A29,29,0,1,1,58,29,29,29,0,0,1,29,58Zm0-55.6A26.62,26.62,0,1,0,55.59,29,26.66,26.66,0,0,0,29,2.35Z"/></g></g></svg>