<svg xmlns="http://www.w3.org/2000/svg" viewBox="0 0 39.93 39.93"><defs><style>.cls-1{fill:#fff;}</style></defs><g id="Ebene_2" data-name="Ebene 2"><g id="Ńëîé_1" data-name="Ńëîé 1"><path class="cls-1" d="M31.22,39.93H8.7A8.71,8.71,0,0,1,0,31.23V8.7A8.71,8.71,0,0,1,8.7,0H31.22a8.71,8.71,0,0,1,8.71,8.7V31.23A8.72,8.72,0,0,1,31.22,39.93ZM8.7,1.7a7,7,0,0,0-7,7V31.23a7,7,0,0,0,7,7H31.22a7,7,0,0,0,7-7V8.7a7,7,0,0,0-7-7Z"/><path class="cls-1" d="M16,31.61A15.44,15.44,0,0,0,31.52,16.07c0-.24,0-.48,0-.71a11,11,0,0,0,2.73-2.83,10.75,10.75,0,0,1-3.14.86,5.44,5.44,0,0,0,2.4-3A10.87,10.87,0,0,1,30,11.7,5.4,5.4,0,0,0,26,10a5.46,5.46,0,0,0-5.46,5.46,5.7,5.7,0,0,0,.14,1.25A15.49,15.49,0,0,1,9.46,11a5.46,5.46,0,0,0,1.69,7.29,5.43,5.43,0,0,1-2.47-.68v.07A5.46,5.46,0,0,0,13.06,23a5.27,5.27,0,0,1-1.44.2,5,5,0,0,1-1-.11,5.46,5.46,0,0,0,5.1,3.8,10.92,10.92,0,0,1-6.78,2.34,11.2,11.2,0,0,1-1.3-.08A15.42,15.42,0,0,0,16,31.61Z"/></g></g></svg>