<svg xmlns="http://www.w3.org/2000/svg" viewBox="0 0 37.03 30.1"><defs><style>.cls-1{fill:#fff;}</style></defs><g id="Ebene_2" data-name="Ebene 2"><g id="Ńëîé_1" data-name="Ńëîé 1"><path class="cls-1" d="M11.65,30.1c14,0,21.61-11.58,21.61-21.62,0-.33,0-.66,0-1A15.43,15.43,0,0,0,37,3.56a15.23,15.23,0,0,1-4.36,1.2A7.63,7.63,0,0,0,36,.56,15.35,15.35,0,0,1,31.19,2.4a7.6,7.6,0,0,0-13,6.93A21.57,21.57,0,0,1,2.58,1.39,7.6,7.6,0,0,0,4.93,11.53a7.56,7.56,0,0,1-3.44-.95v.1a7.61,7.61,0,0,0,6.09,7.45,7.72,7.72,0,0,1-2,.27,7.46,7.46,0,0,1-1.43-.14,7.63,7.63,0,0,0,7.1,5.28,15.3,15.3,0,0,1-9.44,3.25A15.57,15.57,0,0,1,0,26.68,21.46,21.46,0,0,0,11.65,30.1Z"/></g></g></svg>