<svg xmlns="http://www.w3.org/2000/svg" viewBox="0 0 1000 600"><defs><style>.cls-1{fill:#a72727;}.cls-2,.cls-3,.cls-9{fill:#742727;}.cls-3,.cls-4,.cls-6,.cls-7,.cls-8,.cls-9{stroke:#282d33;stroke-width:4px;}.cls-4,.cls-6,.cls-7,.cls-8{fill:none;}.cls-5{fill:#fff;}.cls-6{stroke-dasharray:4.01 4.01;}.cls-7{stroke-dasharray:4.03 4.03;}.cls-8,.cls-9{stroke-linejoin:bevel;}</style></defs><g id="Ebene_2" data-name="Ebene 2"><g id="Layer_2" data-name="Layer 2"><rect class="cls-1" width="1000" height="600"/></g><g id="Layer_4" data-name="Layer 4"><polygon class="cls-2" points="277.07 420.11 277.07 371.73 373.16 371.73 373.16 435.79 292.76 435.79 277.07 420.11"/><polygon class="cls-2" points="293.41 420.1 293.41 436.44 277.07 420.1 293.41 420.1"/><rect class="cls-2" x="109.13" y="227.82" width="138.46" height="69.09"/><path class="cls-3" d="M187.65,304.83H99.1v11.8c0,2.26,2.32,4.78,4.58,4.78h84"/><path class="cls-3" d="M153.5,321.51c-.24,2.93.28,9.45-.35,12.64-.58,2.92-1,3-2.53,3.88-.88.48-2.35,1.15-3.59,1.68h0"/><line class="cls-3" x1="143.19" y1="339.48" x2="194.95" y2="339.48"/><path class="cls-3" d="M223.23,219.25H102.92a3.84,3.84,0,0,0-3.83,3.83v81.83"/><line class="cls-3" x1="109.13" y1="227.54" x2="109.13" y2="296.54"/><line class="cls-4" x1="735.83" y1="233.95" x2="662.59" y2="233.95"/><path class="cls-4" d="M647.39,234H615.8a13.07,13.07,0,0,0-13,11.56"/><path class="cls-2" d="M800.54,255.8l-12,12,9.78,11.55a46,46,0,0,0-6.69,15.09l-15.54,1.3v17L791.17,314a45.8,45.8,0,0,0,6,15.4l-10.07,11.91,12,12,11.55-9.77a46,46,0,0,0,15.09,6.69L827,365.7h17l1.26-15.08a46,46,0,0,0,15.4-5.95l11.9,10.07,12-12-9.78-11.55a45.91,45.91,0,0,0,6.69-15.1L897,314.82v-17l-15.07-1.26a46.2,46.2,0,0,0-6-15.4L886,269.3l-12-12-11.55,9.77a46.14,46.14,0,0,0-15.09-6.68l-1.3-15.54h-17l-1.26,15.07a46.2,46.2,0,0,0-15.4,6ZM849.82,292a18.81,18.81,0,1,1-26.6,0A18.8,18.8,0,0,1,849.82,292Z"/><path class="cls-5" d="M254,302.87c-1.2,3.21-6,13.11-16.46,17-5.62,2.14-11.24,2.41-17.12,2.41h-23v30.78h-30V258.58h53.92c9.23,0,17.8.67,25.16,7.09,9.5,8.17,9.76,19.54,9.76,23.69A40.25,40.25,0,0,1,254,302.87Zm-28.9-19.13c-2.94-5.35-9.23-5.35-10.84-5.35H197.37v24.08h17a21.8,21.8,0,0,0,5.36-.8c2.67-.94,6.82-3.88,6.82-11.38A13.47,13.47,0,0,0,225.07,283.74Z"/><path class="cls-5" d="M319.13,353.05,300.8,319.73h-8.69v33.32h-30V258.58h51.12c2.67,0,5.48.14,8.16.41,4.15.4,16.19,1.47,23,12.84a34,34,0,0,1,4.42,17c0,9-3.48,17.13-11.11,22.21-2,1.34-3.74,2.14-8.29,3.88l23.14,38.14Zm-2-70.38a8.14,8.14,0,0,0-2.81-2.41c-3.08-1.74-6.56-1.87-10-1.87H292.11v21.94h12.44c5.49,0,11.64-.67,13.78-6.82a16.46,16.46,0,0,0,.67-4.15A12.94,12.94,0,0,0,317.13,282.67Z"/><path class="cls-5" d="M441.43,342.48c-13.38,13.38-30.64,13.64-36.66,13.64s-23.55-.26-36.53-13.51c-9.23-9.23-13.78-23-13.78-36.8,0-6.28,1.07-24.08,14.05-37.06,5.89-5.75,17.13-13.65,36.79-13.65,6.16,0,22.88.14,36,13,5.62,5.49,14.58,17.13,14.58,36.93C455.88,310.77,454.94,329,441.43,342.48Zm-25.69-60.75a21.09,21.09,0,0,0-10.44-2.81c-2.27,0-9.09.4-14,5.62-3.35,3.48-6.83,10.17-6.83,21.27,0,1.74-.13,12.72,5.22,19.54a17.54,17.54,0,0,0,6.29,4.95,22.62,22.62,0,0,0,9.36,1.87c5.62,0,10-1.6,13.79-5.88,3.61-3.88,6.69-10,6.69-21.41C425.78,302.34,426.18,288,415.74,281.73Z"/><path class="cls-5" d="M508.6,335.65c-1.74,9.64-7.36,13-11,14.59-4.41,1.87-8.7,2.81-18.06,2.81H459.63V329.76a30.63,30.63,0,0,0,7.63.81c6.69,0,9.77-1.61,11.1-4.82a13,13,0,0,0,1.08-6V258.58h29.83v68.24A53.22,53.22,0,0,1,508.6,335.65Z"/><path class="cls-5" d="M521.32,353.05V258.58h74.79v20.74H551.29v14.05h41.88v20.47h-42v18.74h49v20.47Z"/><path class="cls-5" d="M756,281.86v71.19H726.17V281.86H702.09V258.58H780v23.28Z"/><line class="cls-4" x1="432.75" y1="204.08" x2="446.18" y2="204.08"/><line class="cls-4" x1="439.46" y1="197.37" x2="439.46" y2="210.79"/><line class="cls-4" x1="583.72" y1="123.25" x2="597.14" y2="123.25"/><line class="cls-4" x1="590.43" y1="116.54" x2="590.43" y2="129.96"/><line class="cls-4" x1="314.61" y1="177.14" x2="328.03" y2="177.14"/><line class="cls-4" x1="321.32" y1="170.43" x2="321.32" y2="183.85"/><line class="cls-4" x1="367.66" y1="125.71" x2="381.08" y2="125.71"/><line class="cls-4" x1="374.37" y1="119" x2="374.37" y2="132.42"/><line class="cls-4" x1="613.53" y1="329.69" x2="611.53" y2="329.69"/><path class="cls-6" d="M607.53,329.69h-199a24.26,24.26,0,0,1,0-48.52H612.29"/><line class="cls-4" x1="614.3" y1="281.17" x2="616.3" y2="281.17"/><line class="cls-4" x1="757.24" y1="281.17" x2="759.24" y2="281.17"/><path class="cls-7" d="M763.27,281.17h74.85a24.26,24.26,0,0,1,0,48.52h-137"/><line class="cls-4" x1="699.14" y1="329.69" x2="697.14" y2="329.69"/><path class="cls-4" d="M403.87,306.39a5.88,5.88,0,1,1,5.88,5.88A5.89,5.89,0,0,1,403.87,306.39Z"/><line class="cls-4" x1="409.75" y1="313.54" x2="409.75" y2="319.1"/><line class="cls-4" x1="409.75" y1="293.67" x2="409.75" y2="299.24"/><line class="cls-4" x1="415.94" y1="309.96" x2="420.76" y2="312.74"/><line class="cls-4" x1="398.74" y1="300.03" x2="403.56" y2="302.81"/><line class="cls-4" x1="415.94" y1="302.81" x2="420.76" y2="300.03"/><line class="cls-4" x1="398.74" y1="312.74" x2="403.56" y2="309.96"/><rect class="cls-5" x="479.44" y="258.58" width="29.84" height="52.21"/><polygon class="cls-5" points="521.32 323.23 521.32 353.05 600.13 353.05 600.13 332.57 551.15 332.57 551.15 323.23 521.32 323.23"/><path class="cls-5" d="M693.12,339.93C687.5,346.36,675.46,356,654.45,356c-12,0-22.74-2.94-32-10.84-15.79-13.24-17-32.11-17-38.8a53.78,53.78,0,0,1,9.77-31.58c13-18.33,31-19.67,39.34-19.67,21.54,0,34.38,11.24,39.6,17.26a45.37,45.37,0,0,1,6.15,9.1l-25,12.45c-.4-.94-.93-1.88-1.33-2.81-1.61-3.21-6.29-13-18.33-12.85a18,18,0,0,0-10.84,3.35c-9.37,6.95-9,20.6-9,23,0,13,4.15,19.94,8.7,23.55a17.29,17.29,0,0,0,11.24,3.75c10.3,0,15.12-7,17-10.17a35.54,35.54,0,0,0,2.14-5.35l25.56,12.3C697.13,334.85,695.39,337.26,693.12,339.93Z"/><rect class="cls-5" x="726.17" y="310.8" width="29.84" height="42.25"/><line class="cls-4" x1="336.06" y1="259.56" x2="331.75" y2="255.21"/><line class="cls-4" x1="343.61" y1="246.15" x2="337.7" y2="244.54"/><line class="cls-4" x1="343.45" y1="230.76" x2="337.52" y2="232.32"/><line class="cls-4" x1="307.42" y1="267.56" x2="309.04" y2="261.65"/><line class="cls-4" x1="322.81" y1="267.4" x2="321.25" y2="261.47"/><path class="cls-4" d="M324.42,235.19a9.48,9.48,0,0,1-.17,13.4h0a9.47,9.47,0,0,1-13.39-.16"/><line class="cls-4" x1="263.38" y1="199.42" x2="273.51" y2="189.29"/><line class="cls-4" x1="265.35" y1="206.23" x2="280.32" y2="191.26"/><polyline class="cls-4" points="301.43 206.39 287.75 192.71 268.5 211.96 273.61 216.92"/><polygon class="cls-4" points="338.84 219.32 300.48 205.73 281.69 224.52 295.6 262.56 338.84 219.32"/><line class="cls-4" x1="217.82" y1="265.41" x2="249.92" y2="306.84"/><line class="cls-4" x1="265.82" y1="228.42" x2="219.32" y2="253.98"/><polygon class="cls-4" points="219.89 346.1 248.71 338.62 262.57 338.62 291.39 346.24 291.39 351.9 219.89 351.9 219.89 346.24 219.89 346.1"/><path class="cls-4" d="M203.59,258.72a8.48,8.48,0,1,0,8.48-8.48A8.48,8.48,0,0,0,203.59,258.72Z"/><path class="cls-4" d="M264.12,225.3a8.48,8.48,0,1,0,8.48-8.48A8.48,8.48,0,0,0,264.12,225.3Z"/><polyline class="cls-4" points="265.94 338.41 265.94 326.92 245.9 326.92 245.9 338.41"/><path class="cls-4" d="M247.16,313a8.48,8.48,0,1,0,8.48-8.48A8.48,8.48,0,0,0,247.16,313Z"/><path class="cls-4" d="M478.39,249.44h32.1c.22-3,.9-7,2.82-9.53,11.84-15.25,12.6-29.78,12.6-30.81a31.45,31.45,0,0,0-62.89,0c0,1,.74,15.55,12.6,30.81C477.53,242.45,478.19,246.4,478.39,249.44Z"/><line class="cls-4" x1="474.02" y1="249.81" x2="514.91" y2="249.81"/><line class="cls-4" x1="474.02" y1="257.75" x2="514.91" y2="257.75"/><line class="cls-4" x1="474.02" y1="265.7" x2="514.91" y2="265.7"/><line class="cls-4" x1="479.58" y1="273.64" x2="509.35" y2="273.64"/><line class="cls-4" x1="478.77" y1="265.33" x2="478.77" y2="250.23"/><path class="cls-5" d="M517.4,213.55v-6.44l-5.72-.48a17.46,17.46,0,0,0-2.26-5.85l3.82-4.51-4.55-4.56-4.38,3.71a17.39,17.39,0,0,0-5.73-2.53l-.49-5.9h-6.44l-.48,5.72a17.41,17.41,0,0,0-5.84,2.26l-4.52-3.83-4.56,4.56,3.71,4.38a17.6,17.6,0,0,0-2.53,5.73l-5.9.49v6.44l5.72.48a17.41,17.41,0,0,0,2.26,5.84l-3.82,4.52,4.55,4.55,4.38-3.7a17.6,17.6,0,0,0,5.73,2.53l.49,5.9h6.44l.48-5.72a17.68,17.68,0,0,0,5.85-2.26l4.51,3.82,4.56-4.55L509,219.77A17.69,17.69,0,0,0,511.5,214Z"/><path class="cls-4" d="M501.61,209.93a7.14,7.14,0,1,1-7.14-7.15A7.14,7.14,0,0,1,501.61,209.93Z"/><path class="cls-2" d="M252.82,170.34V163.9l-5.73-.47a17.45,17.45,0,0,0-2.25-5.85l3.82-4.52-4.55-4.55-4.38,3.71a17.46,17.46,0,0,0-5.74-2.54l-.49-5.89h-6.43l-.48,5.72a17.25,17.25,0,0,0-5.85,2.26l-4.52-3.83-4.55,4.55,3.71,4.39a17.62,17.62,0,0,0-2.54,5.73l-5.89.49v6.44l5.73.48a17.2,17.2,0,0,0,2.26,5.84l-3.83,4.52,4.55,4.55,4.39-3.71a17.32,17.32,0,0,0,5.73,2.54l.49,5.9h6.44l.47-5.72a17.68,17.68,0,0,0,5.85-2.26l4.52,3.82,4.55-4.55-3.71-4.38a17.5,17.5,0,0,0,2.54-5.73Zm-22.94,3.52a7.14,7.14,0,1,1,7.14-7.14A7.14,7.14,0,0,1,229.88,173.86Z"/><path class="cls-2" d="M480.09,155.82v-7.61l-6.75-.56a20.74,20.74,0,0,0-2.67-6.9l4.51-5.33L469.81,130l-5.17,4.38a20.63,20.63,0,0,0-6.77-3l-.58-7h-7.6l-.57,6.76a20.51,20.51,0,0,0-6.9,2.66l-5.34-4.51-5.37,5.37,4.38,5.18a20.58,20.58,0,0,0-3,6.76l-7,.59v7.6l6.76.56a20.35,20.35,0,0,0,2.66,6.9l-4.51,5.34,5.37,5.37,5.18-4.38a20.6,20.6,0,0,0,6.76,3l.58,7h7.61l.56-6.75a20.57,20.57,0,0,0,6.9-2.67l5.34,4.51,5.37-5.37-4.37-5.18a20.69,20.69,0,0,0,3-6.76ZM453,160a8.43,8.43,0,1,1,8.43-8.43A8.43,8.43,0,0,1,453,160Z"/><polyline class="cls-8" points="624.05 363.35 639.57 309.74 655.1 256.12 670.62 309.74 686.15 363.35"/><path class="cls-4" d="M666.45,254.63a11.35,11.35,0,1,1-11.36-11.35A11.36,11.36,0,0,1,666.45,254.63Z"/><line class="cls-4" x1="655.09" y1="241.94" x2="655.09" y2="224.59"/><path class="cls-4" d="M628.59,306.78a62.21,62.21,0,0,0,53,0"/><path class="cls-4" d="M711.9,355.76h28.65v0l2.19,0a13.12,13.12,0,0,0,13-11.6c0-3.57,0-116,0-121.83"/><path class="cls-4" d="M736.16,331.6h6.58a13.08,13.08,0,0,1,13,11.57c0-5.82,0-118.26,0-121.82a13.09,13.09,0,0,0-13-11.57h-6.58Z"/><path class="cls-4" d="M306.67,338.91a38.93,38.93,0,1,1,77.86,0"/><path class="cls-4" d="M324.37,351.93a64.59,64.59,0,0,1-1.29-13c0-21.5,10.09-38.93,22.52-38.93s22.51,17.43,22.51,38.93a64,64,0,0,1-1.51,14"/><path class="cls-4" d="M382,352.71A38.95,38.95,0,0,0,345.6,300v51.69"/><path class="cls-4" d="M306.67,338.91a38.87,38.87,0,0,0,2.53,13.73H382a38.35,38.35,0,0,0,0-27.45H309.2A38.82,38.82,0,0,0,306.67,338.91Z"/><rect class="cls-4" x="134.95" y="370.96" width="96.16" height="41.39" rx="1.55"/><line class="cls-4" x1="142.78" y1="381.52" x2="150.08" y2="381.52"/><line class="cls-4" x1="154.98" y1="381.52" x2="162.28" y2="381.52"/><line class="cls-4" x1="167.19" y1="381.52" x2="174.48" y2="381.52"/><line class="cls-4" x1="179.39" y1="381.52" x2="186.68" y2="381.52"/><line class="cls-4" x1="191.59" y1="381.52" x2="198.88" y2="381.52"/><line class="cls-4" x1="203.8" y1="381.52" x2="211.09" y2="381.52"/><line class="cls-4" x1="215.99" y1="381.52" x2="223.29" y2="381.52"/><line class="cls-4" x1="142.78" y1="391.66" x2="150.08" y2="391.66"/><line class="cls-4" x1="154.98" y1="391.66" x2="162.28" y2="391.66"/><line class="cls-4" x1="167.19" y1="391.66" x2="174.48" y2="391.66"/><line class="cls-4" x1="179.39" y1="391.66" x2="186.68" y2="391.66"/><line class="cls-4" x1="191.59" y1="391.66" x2="198.88" y2="391.66"/><line class="cls-4" x1="203.8" y1="391.66" x2="211.09" y2="391.66"/><line class="cls-4" x1="215.99" y1="391.66" x2="223.29" y2="391.66"/><line class="cls-4" x1="142.78" y1="401.8" x2="150.08" y2="401.8"/><line class="cls-4" x1="154.98" y1="401.8" x2="162.28" y2="401.8"/><line class="cls-4" x1="167.19" y1="401.8" x2="211.2" y2="401.8"/><line class="cls-4" x1="215.99" y1="401.8" x2="223.29" y2="401.8"/><path class="cls-4" d="M380.35,352.77H116.55A14.58,14.58,0,0,0,102,367.35h0a14.58,14.58,0,0,0,14.58,14.58h16.11"/><line class="cls-4" x1="198.19" y1="235.05" x2="215.93" y2="235.05"/><line class="cls-4" x1="188.9" y1="235.05" x2="194.81" y2="235.05"/><line class="cls-4" x1="183.09" y1="242.83" x2="200.83" y2="242.83"/><line class="cls-4" x1="173.8" y1="242.83" x2="179.71" y2="242.83"/><path class="cls-2" d="M376.2,210.69h22.46c.16-2.13.64-4.89,2-6.67,8.28-10.68,8.82-20.84,8.82-21.56a22,22,0,1,0-44,0c0,.72.51,10.88,8.81,21.56C375.59,205.8,376.06,208.56,376.2,210.69Z"/><line class="cls-9" x1="381.6" y1="210.63" x2="377.24" y2="186.44"/><line class="cls-9" x1="393.3" y1="210.63" x2="397.66" y2="186.44"/><polyline class="cls-9" points="377.38 187.82 380.73 189.82 384.08 187.82 387.44 189.82 390.8 187.82 394.16 189.82 397.52 187.82"/><line class="cls-9" x1="374.74" y1="210.95" x2="400.16" y2="210.95"/><line class="cls-9" x1="374.74" y1="217.63" x2="400.16" y2="217.63"/><line class="cls-9" x1="379.14" y1="224.32" x2="395.76" y2="224.32"/><line class="cls-9" x1="380.98" y1="217.08" x2="380.98" y2="211.24"/><path class="cls-5" d="M624.93,169.23h22.46c.16-2.12.64-4.89,2-6.67,8.29-10.67,8.82-20.84,8.82-21.56a22,22,0,0,0-44,0c0,.72.52,10.88,8.82,21.56C624.32,164.34,624.78,167.11,624.93,169.23Z"/><line class="cls-8" x1="630.33" y1="169.17" x2="625.97" y2="144.99"/><line class="cls-8" x1="642.03" y1="169.17" x2="646.39" y2="144.99"/><polyline class="cls-8" points="626.11 146.36 629.46 148.36 632.81 146.36 636.17 148.36 639.52 146.36 642.89 148.36 646.25 146.36"/><line class="cls-8" x1="623.47" y1="169.49" x2="648.89" y2="169.49"/><line class="cls-8" x1="623.47" y1="176.18" x2="648.89" y2="176.18"/><line class="cls-8" x1="627.87" y1="182.87" x2="644.49" y2="182.87"/><line class="cls-8" x1="629.7" y1="175.63" x2="629.7" y2="169.79"/><path class="cls-2" d="M505.26,135h22.46c.16-2.12.64-4.89,2-6.66,8.29-10.68,8.82-20.85,8.82-21.57a22,22,0,0,0-44,0c0,.72.51,10.89,8.81,21.57C504.66,130.06,505.12,132.83,505.26,135Z"/><line class="cls-9" x1="510.66" y1="134.89" x2="506.3" y2="110.71"/><line class="cls-9" x1="522.36" y1="134.89" x2="526.72" y2="110.71"/><polyline class="cls-9" points="506.44 112.08 509.79 114.08 513.14 112.08 516.5 114.08 519.86 112.08 523.22 114.08 526.58 112.08"/><line class="cls-9" x1="503.8" y1="135.21" x2="529.22" y2="135.21"/><line class="cls-9" x1="503.8" y1="141.9" x2="529.22" y2="141.9"/><line class="cls-9" x1="508.2" y1="148.59" x2="524.82" y2="148.59"/><line class="cls-9" x1="510.04" y1="141.35" x2="510.04" y2="135.51"/><path class="cls-2" d="M284,142.29h22.47c.15-2.13.63-4.89,2-6.67,8.29-10.68,8.82-20.84,8.82-21.56a22,22,0,1,0-44,0c0,.72.51,10.88,8.81,21.56C283.36,137.4,283.82,140.16,284,142.29Z"/><line class="cls-9" x1="289.36" y1="142.23" x2="285.01" y2="118.04"/><line class="cls-9" x1="301.07" y1="142.23" x2="305.42" y2="118.04"/><polyline class="cls-9" points="285.14 119.42 288.49 121.42 291.85 119.42 295.2 121.42 298.56 119.42 301.92 121.42 305.28 119.42"/><line class="cls-9" x1="282.51" y1="142.54" x2="307.92" y2="142.54"/><line class="cls-9" x1="282.51" y1="149.23" x2="307.92" y2="149.23"/><line class="cls-9" x1="286.9" y1="155.92" x2="303.52" y2="155.92"/><line class="cls-9" x1="288.74" y1="148.68" x2="288.74" y2="142.84"/><path class="cls-5" d="M783.18,206.48h33.69c.23-3.19,1-7.33,3-10,12.43-16,13.23-31.25,13.23-32.33a33,33,0,0,0-66,0c0,1.08.77,16.32,13.22,32.33C782.28,199.15,783,203.29,783.18,206.48Z"/><path class="cls-4" d="M775.81,164a24.24,24.24,0,0,1,24.24-24.12"/><line class="cls-4" x1="791.28" y1="206.38" x2="784.75" y2="170.13"/><line class="cls-4" x1="808.83" y1="206.39" x2="815.36" y2="170.13"/><polyline class="cls-4" points="784.95 172.69 789.98 174.69 795.02 172.69 800.04 174.69 805.08 172.69 810.12 174.69 815.15 172.69"/><line class="cls-4" x1="778.6" y1="206.86" x2="821.51" y2="206.86"/><line class="cls-4" x1="778.6" y1="215.2" x2="821.51" y2="215.2"/><line class="cls-4" x1="778.6" y1="223.54" x2="821.51" y2="223.54"/><line class="cls-4" x1="784.44" y1="231.87" x2="815.67" y2="231.87"/><line class="cls-4" x1="783.58" y1="223.15" x2="783.58" y2="207.31"/><line class="cls-4" x1="800.05" y1="118.54" x2="800.05" y2="125.08"/><line class="cls-4" x1="788.3" y1="120.08" x2="789.99" y2="126.4"/><line class="cls-4" x1="777.34" y1="124.62" x2="780.61" y2="130.29"/><line class="cls-4" x1="767.93" y1="131.84" x2="772.56" y2="136.47"/><line class="cls-4" x1="760.71" y1="141.25" x2="766.38" y2="144.52"/><line class="cls-4" x1="756.17" y1="152.2" x2="762.49" y2="153.9"/><line class="cls-4" x1="754.63" y1="163.96" x2="761.17" y2="163.96"/><line class="cls-4" x1="756.17" y1="175.72" x2="762.49" y2="174.03"/><line class="cls-4" x1="760.71" y1="186.67" x2="766.38" y2="183.4"/><line class="cls-4" x1="767.93" y1="196.08" x2="772.56" y2="191.46"/><line class="cls-4" x1="832.17" y1="196.09" x2="827.55" y2="191.46"/><line class="cls-4" x1="839.39" y1="186.68" x2="833.73" y2="183.41"/><line class="cls-4" x1="843.93" y1="175.72" x2="837.61" y2="174.03"/><line class="cls-4" x1="845.48" y1="163.97" x2="838.94" y2="163.97"/><line class="cls-4" x1="843.93" y1="152.21" x2="837.61" y2="153.9"/><line class="cls-4" x1="839.39" y1="141.25" x2="833.73" y2="144.52"/><line class="cls-4" x1="832.17" y1="131.84" x2="827.55" y2="136.47"/><line class="cls-4" x1="822.77" y1="124.63" x2="819.5" y2="130.29"/><line class="cls-4" x1="811.81" y1="120.09" x2="810.12" y2="126.4"/><path class="cls-4" d="M614.43,196.11V184.89l-10-.83a30.39,30.39,0,0,0-3.93-10.18l6.66-7.87-7.93-7.94-7.64,6.46a30.41,30.41,0,0,0-10-4.41l-.86-10.28H569.56l-.83,10a30.39,30.39,0,0,0-10.18,3.93l-7.87-6.66L542.74,165l6.47,7.64a30.22,30.22,0,0,0-4.42,10l-10.28.86v11.22l10,.83a30.39,30.39,0,0,0,3.93,10.18l-6.66,7.87,7.93,7.94,7.64-6.46a30.37,30.37,0,0,0,10,4.41l.85,10.28h11.22l.83-10a30.39,30.39,0,0,0,10.18-3.93l7.88,6.66,7.93-7.93L599.74,207a30.41,30.41,0,0,0,4.41-10Z"/><path class="cls-4" d="M574.47,169.82a20,20,0,0,1,20,20"/><path class="cls-4" d="M586.91,189.8a12.44,12.44,0,1,1-12.44-12.44A12.44,12.44,0,0,1,586.91,189.8Z"/><polyline class="cls-4" points="721.6 159.6 731.71 169.71 721.6 179.82"/><line class="cls-4" x1="728.96" y1="169.71" x2="674.81" y2="169.7"/><line class="cls-4" x1="347.64" y1="408.7" x2="340.54" y2="408.7"/><polyline class="cls-4" points="456.33 413.86 462.5 413.86 462.5 403.36 456.33 403.36"/><polyline class="cls-4" points="415.78 403.13 372.87 403.13 372.87 414.03 415.78 414.03"/><polyline class="cls-4" points="352.58 405.5 346.72 405.5 346.72 411.66 352.58 411.66"/><rect class="cls-4" x="416.59" y="401.99" width="39.45" height="13.23"/><polyline class="cls-4" points="447.97 415.2 447.97 395.57 414.15 395.57"/><rect class="cls-4" x="352.92" y="403.82" width="19.73" height="9.53"/><path class="cls-4" d="M291.36,386.87c3.31,0,3.31,2,6.63,2s3.31-2,6.63-2,3.31,2,6.63,2,3.32-2,6.64-2,3.32,2,6.63,2"/><path class="cls-4" d="M291.36,399.31c3.28,0,3.28,2,6.56,2s3.28-2,6.57-2,3.28,2,6.56,2"/><path class="cls-2" d="M521.44,370.32V516.53L667.65,370.32Zm26.94,26.94H602.6l-54.22,54.22Z"/><line class="cls-3" x1="530.39" y1="370.32" x2="530.39" y2="382.25"/><line class="cls-3" x1="542.03" y1="370.32" x2="542.03" y2="377.18"/><line class="cls-3" x1="553.67" y1="370.32" x2="553.67" y2="382.25"/><line class="cls-3" x1="565.3" y1="370.32" x2="565.3" y2="377.18"/><line class="cls-3" x1="576.94" y1="370.32" x2="576.94" y2="382.25"/><line class="cls-3" x1="588.58" y1="370.32" x2="588.58" y2="377.18"/><line class="cls-3" x1="600.21" y1="370.32" x2="600.21" y2="382.25"/><line class="cls-3" x1="611.85" y1="370.32" x2="611.85" y2="377.18"/><line class="cls-3" x1="623.49" y1="370.32" x2="623.49" y2="382.25"/><line class="cls-3" x1="635.12" y1="370.32" x2="635.12" y2="377.18"/><line class="cls-3" x1="646.76" y1="370.32" x2="646.76" y2="382.25"/><line class="cls-4" x1="708.55" y1="385.13" x2="803.39" y2="385.13"/><line class="cls-4" x1="708.55" y1="395.4" x2="789.98" y2="395.4"/><polyline class="cls-4" points="703.12 382.22 695.06 392.33 691.36 388.91"/><line class="cls-4" x1="708.55" y1="410.28" x2="803.39" y2="410.28"/><line class="cls-4" x1="708.55" y1="420.55" x2="789.98" y2="420.55"/><polyline class="cls-4" points="703.12 407.37 695.06 417.47 691.36 414.05"/></g></g></svg>